<svg id="Group_7828" data-name="Group 7828" xmlns="http://www.w3.org/2000/svg" width="382" height="383.736" viewBox="0 0 382 383.736">
  <g id="Group_7825" data-name="Group 7825">
    <path id="Path_55460" data-name="Path 55460" d="M373.889,245.352H303.341a4.341,4.341,0,0,1,0-8.682h70.548a4.341,4.341,0,0,1,0,8.682Z" transform="translate(-74.141 -65.056)" fill="#b2dd00"/>
    <path id="Path_55461" data-name="Path 55461" d="M435.877,168.869a59.606,59.606,0,0,1-23.771,47.681l2.457,20.524-22.72-10.6a59.719,59.719,0,0,1-75.324-57.6c0-1.806.088-3.586.244-5.357a59.739,59.739,0,0,0,40.015-51.084,59.7,59.7,0,0,1,79.1,56.441Z" transform="translate(-76.45 -48.252)" fill="#d7e816"/>
    <path id="Path_55462" data-name="Path 55462" d="M376.156,468.957H229.824a19.534,19.534,0,1,1,0-39.068h41.23a4.341,4.341,0,0,1,0,8.682h-41.23a10.852,10.852,0,1,0,0,21.7H376.156A24.879,24.879,0,0,0,393.751,417.8l-20.743-20.751a4.341,4.341,0,0,1,6.14-6.138l20.741,20.75a33.562,33.562,0,0,1-23.733,57.3Z" transform="translate(-62.447 -85.221)" fill="#d7deed"/>
    <path id="Path_55463" data-name="Path 55463" d="M397.364,44A17.364,17.364,0,1,1,380,61.364,17.358,17.358,0,0,1,397.364,44Z" transform="translate(-84.818 -39.659)" fill="#c01d2b" opacity="0.35"/>
    <path id="Path_55464" data-name="Path 55464" d="M445.193,274A15.193,15.193,0,1,1,430,289.193,15.188,15.188,0,0,1,445.193,274Z" transform="translate(-91.409 -69.977)" fill="#c01d2b" opacity="0.35"/>
    <path id="Path_55465" data-name="Path 55465" d="M88.875,339A23.875,23.875,0,1,1,65,362.875,23.873,23.873,0,0,1,88.875,339Z" transform="translate(-43.295 -78.545)" fill="#c01d2b" opacity="0.35"/>
    <path id="Path_55466" data-name="Path 55466" d="M358.429,268.045a60.75,60.75,0,0,0-85.941,0l-3.073,3.064L161.986,163.681l3.065-3.065a60.773,60.773,0,1,0-85.941-85.95L76.036,77.74a78.148,78.148,0,0,0,0,110.5L244.863,357.06a78.138,78.138,0,0,0,110.5,0l3.065-3.073a60.762,60.762,0,0,0,0-85.941Z" transform="translate(-41.734 -41.354)" fill="#3256c1"/>
    <path id="Path_55467" data-name="Path 55467" d="M391.265,297.406a60.761,60.761,0,0,1,0,85.94L388.2,386.42l-85.95-85.95,3.073-3.064a60.75,60.75,0,0,1,85.941,0Z" transform="translate(-74.569 -70.715)" fill="#163eb1"/>
    <path id="Path_55468" data-name="Path 55468" d="M168.525,74.666a60.773,60.773,0,0,1,0,85.95l-3.065,3.065L79.51,77.74l3.073-3.073a60.752,60.752,0,0,1,85.941,0Z" transform="translate(-45.208 -41.354)" fill="#163eb1"/>
    <path id="Path_55469" data-name="Path 55469" d="M76.036,191.412a78.148,78.148,0,0,1,0-110.5l85.95,85.941L269.415,274.28l85.95,85.95a78.138,78.138,0,0,1-110.5,0Z" transform="translate(-41.734 -44.525)" fill="#3256c1"/>
    <path id="Path_55470" data-name="Path 55470" d="M305.791,155.128a60.015,60.015,0,0,1-35.067,1.155L248,166.883l2.466-20.533a59.678,59.678,0,1,1,95.577-47.672q0,2.709-.242,5.365a59.736,59.736,0,0,1-40.014,51.084Z" transform="translate(-64.609 -39)" fill="#07cc66"/>
    <g id="Group_7824" data-name="Group 7824" transform="translate(0 4.341)">
      <path id="Path_55471" data-name="Path 55471" d="M471.511,89A6.511,6.511,0,1,1,465,95.511,6.508,6.508,0,0,1,471.511,89Z" transform="translate(-96.023 -49.932)" fill="#c01d2b" opacity="0.23"/>
      <path id="Path_55472" data-name="Path 55472" d="M461.511,374A6.511,6.511,0,1,1,455,380.511,6.508,6.508,0,0,1,461.511,374Z" transform="translate(-94.705 -87.5)" fill="#c01d2b" opacity="0.23"/>
      <path id="Path_55473" data-name="Path 55473" d="M211.511,44A6.511,6.511,0,1,1,205,50.511,6.508,6.508,0,0,1,211.511,44Z" transform="translate(-61.75 -44)" fill="#c01d2b" opacity="0.23"/>
      <path id="Path_55474" data-name="Path 55474" d="M191.511,364A6.511,6.511,0,1,1,185,370.511,6.508,6.508,0,0,1,191.511,364Z" transform="translate(-59.114 -86.182)" fill="#c01d2b" opacity="0.23"/>
      <path id="Path_55475" data-name="Path 55475" d="M106.511,449A6.511,6.511,0,1,1,100,455.511,6.508,6.508,0,0,1,106.511,449Z" transform="translate(-47.909 -97.386)" fill="#c01d2b" opacity="0.23"/>
      <path id="Path_55476" data-name="Path 55476" d="M61.511,49A6.511,6.511,0,1,1,55,55.511,6.508,6.508,0,0,1,61.511,49Z" transform="translate(-41.977 -44.659)" fill="#c01d2b" opacity="0.23"/>
      <path id="Path_55477" data-name="Path 55477" d="M46.511,259A6.511,6.511,0,1,1,40,265.511,6.508,6.508,0,0,1,46.511,259Z" transform="translate(-40 -72.341)" fill="#c01d2b" opacity="0.23"/>
    </g>
    <path id="Path_55478" data-name="Path 55478" d="M277.318,330.659a4.325,4.325,0,0,1-3.069-1.272L96.272,151.41a4.341,4.341,0,0,1,6.139-6.139L280.388,323.248a4.342,4.342,0,0,1-3.07,7.411Z" transform="translate(-47.25 -52.841)" fill="#163eb1"/>
    <path id="Path_55479" data-name="Path 55479" d="M306.432,87.682H254.341a4.341,4.341,0,1,1,0-8.682h52.091a4.341,4.341,0,1,1,0,8.682Z" transform="translate(-67.682 -44.273)" fill="#fff"/>
    <path id="Path_55480" data-name="Path 55480" d="M323.8,107.682H254.341a4.341,4.341,0,1,1,0-8.682H323.8a4.341,4.341,0,1,1,0,8.682Z" transform="translate(-67.682 -46.909)" fill="#fff"/>
    <path id="Path_55481" data-name="Path 55481" d="M323.8,127.682H254.341a4.341,4.341,0,1,1,0-8.682H323.8a4.341,4.341,0,1,1,0,8.682Z" transform="translate(-67.682 -49.545)" fill="#fff"/>
  </g>
  <g id="Group_7827" data-name="Group 7827">
    <path id="Path_55482" data-name="Path 55482" d="M373.889,245.352H303.341a4.341,4.341,0,0,1,0-8.682h70.548a4.341,4.341,0,0,1,0,8.682Z" transform="translate(-74.141 -65.056)" fill="#e0e0e0"/>
    <path id="Path_55483" data-name="Path 55483" d="M435.877,168.869a59.606,59.606,0,0,1-23.771,47.681l2.457,20.524-22.72-10.6a59.719,59.719,0,0,1-75.324-57.6c0-1.806.088-3.586.244-5.357a59.739,59.739,0,0,0,40.015-51.084,59.7,59.7,0,0,1,79.1,56.441Z" transform="translate(-76.45 -48.252)" fill="#b9b9b9"/>
    <path id="Path_55484" data-name="Path 55484" d="M376.156,468.957H229.824a19.534,19.534,0,1,1,0-39.068h41.23a4.341,4.341,0,0,1,0,8.682h-41.23a10.852,10.852,0,1,0,0,21.7H376.156A24.879,24.879,0,0,0,393.751,417.8l-20.743-20.751a4.341,4.341,0,0,1,6.14-6.138l20.741,20.75a33.562,33.562,0,0,1-23.733,57.3Z" transform="translate(-62.447 -85.221)" fill="#d7deed"/>
    <path id="Path_55488" data-name="Path 55488" d="M358.429,268.045a60.75,60.75,0,0,0-85.941,0l-3.073,3.064L161.986,163.681l3.065-3.065a60.773,60.773,0,1,0-85.941-85.95L76.036,77.74a78.148,78.148,0,0,0,0,110.5L244.863,357.06a78.138,78.138,0,0,0,110.5,0l3.065-3.073a60.762,60.762,0,0,0,0-85.941Z" transform="translate(-41.734 -41.354)" fill="#da3947"/>
    <path id="Path_55489" data-name="Path 55489" d="M391.265,297.406a60.761,60.761,0,0,1,0,85.94L388.2,386.42l-85.95-85.95,3.073-3.064a60.75,60.75,0,0,1,85.941,0Z" transform="translate(-74.569 -70.715)" fill="#c01d2b"/>
    <path id="Path_55490" data-name="Path 55490" d="M168.525,74.666a60.773,60.773,0,0,1,0,85.95l-3.065,3.065L79.51,77.74l3.073-3.073a60.752,60.752,0,0,1,85.941,0Z" transform="translate(-45.208 -41.354)" fill="#c01d2b"/>
    <path id="Path_55492" data-name="Path 55492" d="M305.791,155.128a60.015,60.015,0,0,1-35.067,1.155L248,166.883l2.466-20.533a59.678,59.678,0,1,1,95.577-47.672q0,2.709-.242,5.365a59.736,59.736,0,0,1-40.014,51.084Z" transform="translate(-64.609 -39)" fill="#475757"/>
    <path id="Path_55500" data-name="Path 55500" d="M277.318,330.659a4.325,4.325,0,0,1-3.069-1.272L96.272,151.41a4.341,4.341,0,0,1,6.139-6.139L280.388,323.248a4.342,4.342,0,0,1-3.07,7.411Z" transform="translate(-47.25 -52.841)" fill="#c01d2b"/>
    <path id="Path_55501" data-name="Path 55501" d="M306.432,87.682H254.341a4.341,4.341,0,1,1,0-8.682h52.091a4.341,4.341,0,1,1,0,8.682Z" transform="translate(-67.682 -44.273)" fill="#fff"/>
    <path id="Path_55502" data-name="Path 55502" d="M323.8,107.682H254.341a4.341,4.341,0,1,1,0-8.682H323.8a4.341,4.341,0,1,1,0,8.682Z" transform="translate(-67.682 -46.909)" fill="#fff"/>
    <path id="Path_55503" data-name="Path 55503" d="M323.8,127.682H254.341a4.341,4.341,0,1,1,0-8.682H323.8a4.341,4.341,0,1,1,0,8.682Z" transform="translate(-67.682 -49.545)" fill="#fff"/>
  </g>
</svg>
