<svg xmlns="http://www.w3.org/2000/svg" width="108.585" height="108.585" viewBox="0 0 108.585 108.585">
  <g id="call-calling" transform="translate(4 4)">
    <path id="Vector" d="M0,82.128A12.8,12.8,0,0,0,1.257,87.61a20.751,20.751,0,0,0,3.42,5.13,22.673,22.673,0,0,0,8.248,5.935,25.255,25.255,0,0,0,9.807,1.911,41.912,41.912,0,0,0,16.4-3.671,88.335,88.335,0,0,0,17.3-9.958,144.593,144.593,0,0,0,16.5-14.082A142.9,142.9,0,0,0,86.956,56.428a89.661,89.661,0,0,0,9.857-17.15,42.36,42.36,0,0,0,3.621-16.446,26.017,26.017,0,0,0-1.811-9.706,23.148,23.148,0,0,0-5.784-8.4C89.621,1.559,86.1,0,82.379,0a9.451,9.451,0,0,0-4.074.905,8.2,8.2,0,0,0-3.37,2.816L63.268,20.167a17.212,17.212,0,0,0-2.012,3.52,7.949,7.949,0,0,0-.7,3.068,6.827,6.827,0,0,0,1.056,3.571A17.106,17.106,0,0,0,64.425,33.9l3.822,3.973a2.691,2.691,0,0,1,.8,2.012,4.566,4.566,0,0,1-.151,1.157c-.151.4-.3.7-.4,1.006a41.734,41.734,0,0,1-4.677,6.437c-2.263,2.615-4.677,5.281-7.292,7.946-2.716,2.666-5.331,5.13-8,7.393a38.6,38.6,0,0,1-6.488,4.627c-.251.1-.553.251-.905.4a3.473,3.473,0,0,1-1.257.2A2.767,2.767,0,0,1,37.82,68.2L34,64.425a15.431,15.431,0,0,0-3.621-2.816,6.7,6.7,0,0,0-3.571-1.056,8.026,8.026,0,0,0-3.068.654,19.451,19.451,0,0,0-3.52,1.961L3.571,74.986A7.629,7.629,0,0,0,.8,78.2,10.318,10.318,0,0,0,0,82.128Z" transform="translate(0.151)" fill="none" stroke="#c01d2b" stroke-width="8"/>
    <path id="Vector-2" data-name="Vector" d="M0,17.6C0,14.585,2.364,9.958,5.884,6.186,9.1,2.716,13.378,0,17.6,0" transform="translate(17.602 17.602)" fill="none" stroke="#c01d2b" stroke-linecap="round" stroke-linejoin="round" stroke-width="8"/>
    <path id="Vector-3" data-name="Vector" d="M0,35.2A35.179,35.179,0,0,1,35.2,0" fill="none" stroke="#c01d2b" stroke-linecap="round" stroke-linejoin="round" stroke-width="8"/>
  </g>
</svg>
