<svg id="_2253" data-name="2253" xmlns="http://www.w3.org/2000/svg" width="128.399" height="128.401" viewBox="0 0 128.399 128.401">
  <path id="Path_55242" data-name="Path 55242" d="M67.664,48.909l-.048.4c-11.765-5.864-13-6.645-14.514-4.366-1.054,1.578-4.125,5.157-5.05,6.217-.936,1.043-1.867,1.123-3.456.4A43.42,43.42,0,0,1,31.74,43.618a48.537,48.537,0,0,1-8.881-11.074c-1.568-2.707,1.712-3.092,4.7-8.742a2.941,2.941,0,0,0-.134-2.8c-.4-.8-3.6-8.667-4.933-11.8-1.284-3.124-2.605-2.728-3.6-2.728-3.082-.268-5.334-.225-7.319,1.84C2.941,17.8,5.118,27.59,12.506,38c14.52,19,22.256,22.5,36.4,27.36a22.134,22.134,0,0,0,10.058.647c3.071-.487,9.453-3.857,10.786-7.629,1.364-3.772,1.364-6.9.963-7.624s-1.444-1.123-3.049-1.846Z" transform="translate(25.997 27.635)" fill="#c01d2b"/>
  <path id="Path_55243" data-name="Path 55243" d="M109.781,18.454C68.645-21.312.567,7.529.54,63.629A63.322,63.322,0,0,0,9.074,95.434L0,128.4l33.892-8.838c42.291,22.844,94.486-7.49,94.507-55.9a63.1,63.1,0,0,0-18.7-45Zm7.929,45.031c-.032,40.836-44.859,66.339-80.314,45.5l-1.926-1.145-20.062,5.216,5.377-19.5-1.279-2.006C-2.557,56.422,22.791,10.52,64.585,10.52A53.145,53.145,0,0,1,117.71,63.484Z" transform="translate(0 0)" fill="#c01d2b"/>
</svg>
